<mxfile host="app.diagrams.net" modified="2024-04-24T00:39:18.929Z" agent="Mozilla/5.0 (Windows NT 10.0; Win64; x64) AppleWebKit/537.36 (KHTML, like Gecko) Chrome/123.0.0.0 Safari/537.36" etag="Lwg0GFPx-nzH6vJhRuhQ" version="24.2.8" type="github">
  <diagram id="C5RBs43oDa-KdzZeNtuy" name="Page-1">
    <mxGraphModel dx="880" dy="1637" grid="1" gridSize="10" guides="1" tooltips="1" connect="1" arrows="1" fold="1" page="1" pageScale="1" pageWidth="827" pageHeight="1169" math="0" shadow="0">
      <root>
        <mxCell id="WIyWlLk6GJQsqaUBKTNV-0" />
        <mxCell id="WIyWlLk6GJQsqaUBKTNV-1" parent="WIyWlLk6GJQsqaUBKTNV-0" />
        <mxCell id="WIyWlLk6GJQsqaUBKTNV-3" value="Appoinment" style="rounded=1;whiteSpace=wrap;html=1;fontSize=12;glass=0;strokeWidth=1;shadow=0;" parent="WIyWlLk6GJQsqaUBKTNV-1" vertex="1">
          <mxGeometry x="270" y="170" width="120" height="40" as="geometry" />
        </mxCell>
        <mxCell id="VbyRztVG5FkuEBrkz8MD-3" style="edgeStyle=orthogonalEdgeStyle;rounded=0;orthogonalLoop=1;jettySize=auto;html=1;entryX=0.5;entryY=0;entryDx=0;entryDy=0;" edge="1" parent="WIyWlLk6GJQsqaUBKTNV-1" source="WIyWlLk6GJQsqaUBKTNV-6" target="WIyWlLk6GJQsqaUBKTNV-3">
          <mxGeometry relative="1" as="geometry" />
        </mxCell>
        <mxCell id="VbyRztVG5FkuEBrkz8MD-8" style="edgeStyle=orthogonalEdgeStyle;rounded=0;orthogonalLoop=1;jettySize=auto;html=1;" edge="1" parent="WIyWlLk6GJQsqaUBKTNV-1" source="WIyWlLk6GJQsqaUBKTNV-6" target="WIyWlLk6GJQsqaUBKTNV-11">
          <mxGeometry relative="1" as="geometry" />
        </mxCell>
        <mxCell id="VbyRztVG5FkuEBrkz8MD-11" style="edgeStyle=orthogonalEdgeStyle;rounded=0;orthogonalLoop=1;jettySize=auto;html=1;" edge="1" parent="WIyWlLk6GJQsqaUBKTNV-1" source="WIyWlLk6GJQsqaUBKTNV-6" target="VbyRztVG5FkuEBrkz8MD-6">
          <mxGeometry relative="1" as="geometry">
            <Array as="points">
              <mxPoint x="400" y="135" />
              <mxPoint x="590" y="135" />
            </Array>
          </mxGeometry>
        </mxCell>
        <mxCell id="WIyWlLk6GJQsqaUBKTNV-6" value="Models" style="rhombus;whiteSpace=wrap;html=1;shadow=0;fontFamily=Helvetica;fontSize=12;align=center;strokeWidth=1;spacing=6;spacingTop=-4;" parent="WIyWlLk6GJQsqaUBKTNV-1" vertex="1">
          <mxGeometry x="350" y="20" width="100" height="80" as="geometry" />
        </mxCell>
        <mxCell id="WIyWlLk6GJQsqaUBKTNV-7" value="Doctor" style="rounded=1;whiteSpace=wrap;html=1;fontSize=12;glass=0;strokeWidth=1;shadow=0;" parent="WIyWlLk6GJQsqaUBKTNV-1" vertex="1">
          <mxGeometry x="140" y="170" width="120" height="40" as="geometry" />
        </mxCell>
        <mxCell id="WIyWlLk6GJQsqaUBKTNV-11" value="User:&amp;nbsp;" style="rounded=1;whiteSpace=wrap;html=1;fontSize=12;glass=0;strokeWidth=1;shadow=0;" parent="WIyWlLk6GJQsqaUBKTNV-1" vertex="1">
          <mxGeometry x="400" y="170" width="120" height="40" as="geometry" />
        </mxCell>
        <mxCell id="VbyRztVG5FkuEBrkz8MD-6" value="Speciality" style="rounded=1;whiteSpace=wrap;html=1;fontSize=12;glass=0;strokeWidth=1;shadow=0;" vertex="1" parent="WIyWlLk6GJQsqaUBKTNV-1">
          <mxGeometry x="530" y="170" width="120" height="40" as="geometry" />
        </mxCell>
        <mxCell id="VbyRztVG5FkuEBrkz8MD-10" style="edgeStyle=orthogonalEdgeStyle;rounded=0;orthogonalLoop=1;jettySize=auto;html=1;" edge="1" parent="WIyWlLk6GJQsqaUBKTNV-1" source="WIyWlLk6GJQsqaUBKTNV-6" target="WIyWlLk6GJQsqaUBKTNV-7">
          <mxGeometry relative="1" as="geometry">
            <Array as="points">
              <mxPoint x="400" y="135" />
              <mxPoint x="200" y="135" />
            </Array>
          </mxGeometry>
        </mxCell>
        <mxCell id="VbyRztVG5FkuEBrkz8MD-16" style="edgeStyle=orthogonalEdgeStyle;rounded=0;orthogonalLoop=1;jettySize=auto;html=1;entryX=0.5;entryY=0;entryDx=0;entryDy=0;" edge="1" parent="WIyWlLk6GJQsqaUBKTNV-1" source="VbyRztVG5FkuEBrkz8MD-13" target="VbyRztVG5FkuEBrkz8MD-14">
          <mxGeometry relative="1" as="geometry" />
        </mxCell>
        <mxCell id="VbyRztVG5FkuEBrkz8MD-18" style="edgeStyle=orthogonalEdgeStyle;rounded=0;orthogonalLoop=1;jettySize=auto;html=1;" edge="1" parent="WIyWlLk6GJQsqaUBKTNV-1" source="VbyRztVG5FkuEBrkz8MD-13" target="VbyRztVG5FkuEBrkz8MD-17">
          <mxGeometry relative="1" as="geometry" />
        </mxCell>
        <mxCell id="VbyRztVG5FkuEBrkz8MD-13" value="Routes" style="rhombus;whiteSpace=wrap;html=1;shadow=0;fontFamily=Helvetica;fontSize=12;align=center;strokeWidth=1;spacing=6;spacingTop=-4;" vertex="1" parent="WIyWlLk6GJQsqaUBKTNV-1">
          <mxGeometry x="355" y="250" width="100" height="80" as="geometry" />
        </mxCell>
        <mxCell id="VbyRztVG5FkuEBrkz8MD-14" value="User:&lt;div&gt;Get&lt;/div&gt;&lt;div&gt;Get ID&lt;/div&gt;&lt;div&gt;Post&lt;/div&gt;&lt;div&gt;Delete&lt;/div&gt;&lt;div&gt;Put&lt;/div&gt;" style="rounded=1;whiteSpace=wrap;html=1;fontSize=12;glass=0;strokeWidth=1;shadow=0;" vertex="1" parent="WIyWlLk6GJQsqaUBKTNV-1">
          <mxGeometry x="425" y="370" width="120" height="100" as="geometry" />
        </mxCell>
        <mxCell id="VbyRztVG5FkuEBrkz8MD-17" value="Appointment:&lt;div&gt;Get&lt;/div&gt;&lt;div&gt;Get ID&lt;/div&gt;&lt;div&gt;Post&lt;/div&gt;&lt;div&gt;Delete&lt;/div&gt;&lt;div&gt;Put&lt;/div&gt;" style="rounded=1;whiteSpace=wrap;html=1;fontSize=12;glass=0;strokeWidth=1;shadow=0;" vertex="1" parent="WIyWlLk6GJQsqaUBKTNV-1">
          <mxGeometry x="265" y="370" width="120" height="100" as="geometry" />
        </mxCell>
        <mxCell id="VbyRztVG5FkuEBrkz8MD-19" value="Doctor:&lt;div&gt;Get&lt;/div&gt;&lt;div&gt;Get ID&lt;/div&gt;&lt;div&gt;Post&lt;/div&gt;&lt;div&gt;Delete&lt;/div&gt;&lt;div&gt;Put&lt;/div&gt;" style="rounded=1;whiteSpace=wrap;html=1;fontSize=12;glass=0;strokeWidth=1;shadow=0;" vertex="1" parent="WIyWlLk6GJQsqaUBKTNV-1">
          <mxGeometry x="115" y="370" width="120" height="100" as="geometry" />
        </mxCell>
        <mxCell id="VbyRztVG5FkuEBrkz8MD-20" value="Speciality:&lt;div&gt;&lt;span style=&quot;background-color: initial;&quot;&gt;Get&lt;/span&gt;&lt;br&gt;&lt;/div&gt;&lt;div&gt;Get ID&lt;/div&gt;&lt;div&gt;Post&lt;/div&gt;&lt;div&gt;Delete&lt;/div&gt;&lt;div&gt;Put&lt;/div&gt;" style="rounded=1;whiteSpace=wrap;html=1;fontSize=12;glass=0;strokeWidth=1;shadow=0;" vertex="1" parent="WIyWlLk6GJQsqaUBKTNV-1">
          <mxGeometry x="565" y="370" width="120" height="100" as="geometry" />
        </mxCell>
        <mxCell id="VbyRztVG5FkuEBrkz8MD-21" style="edgeStyle=orthogonalEdgeStyle;rounded=0;orthogonalLoop=1;jettySize=auto;html=1;" edge="1" parent="WIyWlLk6GJQsqaUBKTNV-1" source="VbyRztVG5FkuEBrkz8MD-13" target="VbyRztVG5FkuEBrkz8MD-20">
          <mxGeometry relative="1" as="geometry">
            <Array as="points">
              <mxPoint x="405" y="350" />
              <mxPoint x="625" y="350" />
            </Array>
          </mxGeometry>
        </mxCell>
        <mxCell id="VbyRztVG5FkuEBrkz8MD-22" style="edgeStyle=orthogonalEdgeStyle;rounded=0;orthogonalLoop=1;jettySize=auto;html=1;" edge="1" parent="WIyWlLk6GJQsqaUBKTNV-1" source="VbyRztVG5FkuEBrkz8MD-13" target="VbyRztVG5FkuEBrkz8MD-19">
          <mxGeometry relative="1" as="geometry">
            <Array as="points">
              <mxPoint x="405" y="350" />
              <mxPoint x="185" y="350" />
            </Array>
          </mxGeometry>
        </mxCell>
        <mxCell id="VbyRztVG5FkuEBrkz8MD-25" style="edgeStyle=orthogonalEdgeStyle;rounded=0;orthogonalLoop=1;jettySize=auto;html=1;entryX=0.5;entryY=0;entryDx=0;entryDy=0;" edge="1" parent="WIyWlLk6GJQsqaUBKTNV-1" source="VbyRztVG5FkuEBrkz8MD-23" target="VbyRztVG5FkuEBrkz8MD-24">
          <mxGeometry relative="1" as="geometry" />
        </mxCell>
        <mxCell id="VbyRztVG5FkuEBrkz8MD-27" style="edgeStyle=orthogonalEdgeStyle;rounded=0;orthogonalLoop=1;jettySize=auto;html=1;entryX=0.5;entryY=0;entryDx=0;entryDy=0;" edge="1" parent="WIyWlLk6GJQsqaUBKTNV-1" source="VbyRztVG5FkuEBrkz8MD-23" target="VbyRztVG5FkuEBrkz8MD-26">
          <mxGeometry relative="1" as="geometry" />
        </mxCell>
        <mxCell id="VbyRztVG5FkuEBrkz8MD-33" style="edgeStyle=orthogonalEdgeStyle;rounded=0;orthogonalLoop=1;jettySize=auto;html=1;" edge="1" parent="WIyWlLk6GJQsqaUBKTNV-1" source="VbyRztVG5FkuEBrkz8MD-23" target="VbyRztVG5FkuEBrkz8MD-28">
          <mxGeometry relative="1" as="geometry">
            <Array as="points">
              <mxPoint x="400" y="600" />
              <mxPoint x="120" y="600" />
            </Array>
          </mxGeometry>
        </mxCell>
        <mxCell id="VbyRztVG5FkuEBrkz8MD-23" value="Services" style="rhombus;whiteSpace=wrap;html=1;shadow=0;fontFamily=Helvetica;fontSize=12;align=center;strokeWidth=1;spacing=6;spacingTop=-4;" vertex="1" parent="WIyWlLk6GJQsqaUBKTNV-1">
          <mxGeometry x="350" y="500" width="100" height="80" as="geometry" />
        </mxCell>
        <mxCell id="VbyRztVG5FkuEBrkz8MD-24" value="User:&lt;div&gt;1) Crear usuarios(Create)&lt;/div&gt;&lt;div&gt;2) obtener usuarios(FindAll)&lt;/div&gt;&lt;div&gt;3) obtener usuarios por ID(findByPk(id)&lt;/div&gt;&lt;div&gt;4) Login usuario(findone)&lt;/div&gt;&lt;div&gt;5) Eliminar usuario(Destroy)&lt;/div&gt;&lt;div&gt;6) Editar usuario(Update)&lt;/div&gt;" style="rounded=1;whiteSpace=wrap;html=1;fontSize=12;glass=0;strokeWidth=1;shadow=0;" vertex="1" parent="WIyWlLk6GJQsqaUBKTNV-1">
          <mxGeometry x="420" y="620" width="160" height="130" as="geometry" />
        </mxCell>
        <mxCell id="VbyRztVG5FkuEBrkz8MD-26" value="Appointment:&lt;div&gt;1) Crear turno(Create)&lt;/div&gt;&lt;div&gt;2) obtener turnos(FindAll)&lt;/div&gt;&lt;div&gt;3) obtener turno por ID(findByPk(id)&lt;/div&gt;&lt;div&gt;&lt;span style=&quot;background-color: initial;&quot;&gt;4) Cancelar turno(Destroy)&lt;/span&gt;&lt;br&gt;&lt;/div&gt;&lt;div&gt;5) Actualizar turno(Update)&lt;/div&gt;" style="rounded=1;whiteSpace=wrap;html=1;fontSize=12;glass=0;strokeWidth=1;shadow=0;" vertex="1" parent="WIyWlLk6GJQsqaUBKTNV-1">
          <mxGeometry x="220" y="620" width="160" height="130" as="geometry" />
        </mxCell>
        <mxCell id="VbyRztVG5FkuEBrkz8MD-28" value="Doctor:&lt;div&gt;1) Crear Doctor(Create)&lt;/div&gt;&lt;div&gt;2) obtener Doctores(FindAll)&lt;/div&gt;&lt;div&gt;3) obtener Doctor por ID(findByPk(id)&lt;/div&gt;&lt;div&gt;4) Eliminar Doctor(Destroy)&lt;/div&gt;&lt;div&gt;5) Editar doctor(Update)&lt;/div&gt;" style="rounded=1;whiteSpace=wrap;html=1;fontSize=12;glass=0;strokeWidth=1;shadow=0;" vertex="1" parent="WIyWlLk6GJQsqaUBKTNV-1">
          <mxGeometry x="30" y="620" width="160" height="130" as="geometry" />
        </mxCell>
        <mxCell id="VbyRztVG5FkuEBrkz8MD-30" value="Speciality:&lt;div&gt;1) Crear Speciality(Create)&lt;/div&gt;&lt;div&gt;2) obtener Speciality(FindAll)&lt;/div&gt;&lt;div&gt;3) obtener Speciality por ID(findByPk(id)&lt;/div&gt;&lt;div&gt;4) Eliminar Speciality(Destroy)&lt;/div&gt;&lt;div&gt;5) Editar Speciality(Update)&lt;/div&gt;" style="rounded=1;whiteSpace=wrap;html=1;fontSize=12;glass=0;strokeWidth=1;shadow=0;" vertex="1" parent="WIyWlLk6GJQsqaUBKTNV-1">
          <mxGeometry x="610" y="620" width="170" height="130" as="geometry" />
        </mxCell>
        <mxCell id="VbyRztVG5FkuEBrkz8MD-34" style="edgeStyle=orthogonalEdgeStyle;rounded=0;orthogonalLoop=1;jettySize=auto;html=1;" edge="1" parent="WIyWlLk6GJQsqaUBKTNV-1" source="VbyRztVG5FkuEBrkz8MD-23" target="VbyRztVG5FkuEBrkz8MD-30">
          <mxGeometry relative="1" as="geometry">
            <Array as="points">
              <mxPoint x="400" y="600" />
              <mxPoint x="700" y="600" />
              <mxPoint x="700" y="618" />
              <mxPoint x="695" y="618" />
            </Array>
          </mxGeometry>
        </mxCell>
        <mxCell id="VbyRztVG5FkuEBrkz8MD-51" style="edgeStyle=orthogonalEdgeStyle;rounded=0;orthogonalLoop=1;jettySize=auto;html=1;entryX=0.5;entryY=0;entryDx=0;entryDy=0;" edge="1" parent="WIyWlLk6GJQsqaUBKTNV-1" source="VbyRztVG5FkuEBrkz8MD-54" target="VbyRztVG5FkuEBrkz8MD-55">
          <mxGeometry relative="1" as="geometry" />
        </mxCell>
        <mxCell id="VbyRztVG5FkuEBrkz8MD-52" style="edgeStyle=orthogonalEdgeStyle;rounded=0;orthogonalLoop=1;jettySize=auto;html=1;entryX=0.5;entryY=0;entryDx=0;entryDy=0;" edge="1" parent="WIyWlLk6GJQsqaUBKTNV-1" source="VbyRztVG5FkuEBrkz8MD-54" target="VbyRztVG5FkuEBrkz8MD-56">
          <mxGeometry relative="1" as="geometry" />
        </mxCell>
        <mxCell id="VbyRztVG5FkuEBrkz8MD-53" style="edgeStyle=orthogonalEdgeStyle;rounded=0;orthogonalLoop=1;jettySize=auto;html=1;" edge="1" parent="WIyWlLk6GJQsqaUBKTNV-1" source="VbyRztVG5FkuEBrkz8MD-54" target="VbyRztVG5FkuEBrkz8MD-57">
          <mxGeometry relative="1" as="geometry">
            <Array as="points">
              <mxPoint x="400" y="860" />
              <mxPoint x="120" y="860" />
            </Array>
          </mxGeometry>
        </mxCell>
        <mxCell id="VbyRztVG5FkuEBrkz8MD-54" value="Controllers" style="rhombus;whiteSpace=wrap;html=1;shadow=0;fontFamily=Helvetica;fontSize=12;align=center;strokeWidth=1;spacing=6;spacingTop=-4;" vertex="1" parent="WIyWlLk6GJQsqaUBKTNV-1">
          <mxGeometry x="350" y="760" width="100" height="80" as="geometry" />
        </mxCell>
        <mxCell id="VbyRztVG5FkuEBrkz8MD-55" value="User:&lt;div&gt;1) Crear usuarios(req.body)&lt;/div&gt;&lt;div&gt;2) obtener usuarios&lt;/div&gt;&lt;div&gt;3) obtener usuarios por ID(req.params)&lt;/div&gt;&lt;div&gt;4) Login usuario(req.body)&lt;/div&gt;&lt;div&gt;5) Eliminar usuario(req.params)&lt;/div&gt;&lt;div&gt;6) Editar usuario(req.params)&lt;/div&gt;" style="rounded=1;whiteSpace=wrap;html=1;fontSize=12;glass=0;strokeWidth=1;shadow=0;" vertex="1" parent="WIyWlLk6GJQsqaUBKTNV-1">
          <mxGeometry x="410" y="880" width="180" height="130" as="geometry" />
        </mxCell>
        <mxCell id="VbyRztVG5FkuEBrkz8MD-56" value="Appointment:&lt;div&gt;1) Crear turno(req.body)&lt;/div&gt;&lt;div&gt;2) obtener turnos(req.params)&lt;/div&gt;&lt;div&gt;3) obtener turno por ID(req.params)&lt;/div&gt;&lt;div&gt;&lt;span style=&quot;background-color: initial;&quot;&gt;4) Cancelar turno(&lt;/span&gt;req.params&lt;span style=&quot;background-color: initial;&quot;&gt;)&lt;/span&gt;&lt;br&gt;&lt;/div&gt;&lt;div&gt;5) Actualizar turno(req.params)&lt;/div&gt;" style="rounded=1;whiteSpace=wrap;html=1;fontSize=12;glass=0;strokeWidth=1;shadow=0;" vertex="1" parent="WIyWlLk6GJQsqaUBKTNV-1">
          <mxGeometry x="210" y="880" width="180" height="130" as="geometry" />
        </mxCell>
        <mxCell id="VbyRztVG5FkuEBrkz8MD-57" value="Doctor:&lt;div&gt;1) Crear Doctor(req.body)&lt;/div&gt;&lt;div&gt;2) Obtener Doctores&lt;/div&gt;&lt;div&gt;3) Obtener Doctor por ID(req.params)&lt;/div&gt;&lt;div&gt;4) Login Doctor(req.body)&lt;/div&gt;&lt;div&gt;5) Eliminar Doctor(req.params)&lt;/div&gt;&lt;div&gt;6) Editar doctor(req.params)&lt;/div&gt;" style="rounded=1;whiteSpace=wrap;html=1;fontSize=12;glass=0;strokeWidth=1;shadow=0;" vertex="1" parent="WIyWlLk6GJQsqaUBKTNV-1">
          <mxGeometry x="20" y="880" width="170" height="130" as="geometry" />
        </mxCell>
        <mxCell id="VbyRztVG5FkuEBrkz8MD-58" value="Speciality:&lt;div&gt;1) Crear Speciality(req.body)&lt;/div&gt;&lt;div&gt;2) obtener Speciality(req.params)&lt;/div&gt;&lt;div&gt;3) obtener Speciality por ID(req.params(id)&lt;/div&gt;&lt;div&gt;4) Eliminar Speciality(req.params)&lt;/div&gt;&lt;div&gt;5) Editar Speciality(req.params)&lt;/div&gt;" style="rounded=1;whiteSpace=wrap;html=1;fontSize=12;glass=0;strokeWidth=1;shadow=0;" vertex="1" parent="WIyWlLk6GJQsqaUBKTNV-1">
          <mxGeometry x="600" y="880" width="190" height="130" as="geometry" />
        </mxCell>
        <mxCell id="VbyRztVG5FkuEBrkz8MD-59" style="edgeStyle=orthogonalEdgeStyle;rounded=0;orthogonalLoop=1;jettySize=auto;html=1;" edge="1" parent="WIyWlLk6GJQsqaUBKTNV-1" source="VbyRztVG5FkuEBrkz8MD-54" target="VbyRztVG5FkuEBrkz8MD-58">
          <mxGeometry relative="1" as="geometry">
            <Array as="points">
              <mxPoint x="400" y="860" />
              <mxPoint x="700" y="860" />
              <mxPoint x="700" y="878" />
              <mxPoint x="695" y="878" />
            </Array>
          </mxGeometry>
        </mxCell>
        <mxCell id="VbyRztVG5FkuEBrkz8MD-60" value="Repository" style="rhombus;whiteSpace=wrap;html=1;shadow=0;fontFamily=Helvetica;fontSize=12;align=center;strokeWidth=1;spacing=6;spacingTop=-4;" vertex="1" parent="WIyWlLk6GJQsqaUBKTNV-1">
          <mxGeometry x="350" y="1030" width="100" height="80" as="geometry" />
        </mxCell>
        <mxCell id="VbyRztVG5FkuEBrkz8MD-63" style="edgeStyle=orthogonalEdgeStyle;rounded=0;orthogonalLoop=1;jettySize=auto;html=1;" edge="1" parent="WIyWlLk6GJQsqaUBKTNV-1" source="VbyRztVG5FkuEBrkz8MD-61" target="WIyWlLk6GJQsqaUBKTNV-6">
          <mxGeometry relative="1" as="geometry" />
        </mxCell>
        <mxCell id="VbyRztVG5FkuEBrkz8MD-61" value="BACK" style="whiteSpace=wrap;html=1;shadow=0;strokeWidth=1;spacing=6;spacingTop=-4;" vertex="1" parent="WIyWlLk6GJQsqaUBKTNV-1">
          <mxGeometry x="340" y="-130" width="120" height="60" as="geometry" />
        </mxCell>
        <mxCell id="VbyRztVG5FkuEBrkz8MD-69" value="" style="edgeStyle=orthogonalEdgeStyle;rounded=0;orthogonalLoop=1;jettySize=auto;html=1;" edge="1" parent="WIyWlLk6GJQsqaUBKTNV-1" source="VbyRztVG5FkuEBrkz8MD-66" target="VbyRztVG5FkuEBrkz8MD-68">
          <mxGeometry relative="1" as="geometry" />
        </mxCell>
        <mxCell id="VbyRztVG5FkuEBrkz8MD-66" value="FRONT" style="whiteSpace=wrap;html=1;shadow=0;strokeWidth=1;spacing=6;spacingTop=-4;" vertex="1" parent="WIyWlLk6GJQsqaUBKTNV-1">
          <mxGeometry x="340" y="1200" width="120" height="60" as="geometry" />
        </mxCell>
        <mxCell id="VbyRztVG5FkuEBrkz8MD-71" value="" style="edgeStyle=orthogonalEdgeStyle;rounded=0;orthogonalLoop=1;jettySize=auto;html=1;" edge="1" parent="WIyWlLk6GJQsqaUBKTNV-1" source="VbyRztVG5FkuEBrkz8MD-68" target="VbyRztVG5FkuEBrkz8MD-70">
          <mxGeometry relative="1" as="geometry" />
        </mxCell>
        <mxCell id="VbyRztVG5FkuEBrkz8MD-76" value="" style="edgeStyle=orthogonalEdgeStyle;rounded=0;orthogonalLoop=1;jettySize=auto;html=1;" edge="1" parent="WIyWlLk6GJQsqaUBKTNV-1" source="VbyRztVG5FkuEBrkz8MD-68" target="VbyRztVG5FkuEBrkz8MD-75">
          <mxGeometry relative="1" as="geometry" />
        </mxCell>
        <mxCell id="VbyRztVG5FkuEBrkz8MD-79" value="" style="edgeStyle=orthogonalEdgeStyle;rounded=0;orthogonalLoop=1;jettySize=auto;html=1;" edge="1" parent="WIyWlLk6GJQsqaUBKTNV-1" source="VbyRztVG5FkuEBrkz8MD-68" target="VbyRztVG5FkuEBrkz8MD-78">
          <mxGeometry relative="1" as="geometry" />
        </mxCell>
        <mxCell id="VbyRztVG5FkuEBrkz8MD-68" value="SRC" style="rhombus;whiteSpace=wrap;html=1;shadow=0;strokeWidth=1;spacing=6;spacingTop=-4;" vertex="1" parent="WIyWlLk6GJQsqaUBKTNV-1">
          <mxGeometry x="360" y="1330" width="80" height="80" as="geometry" />
        </mxCell>
        <mxCell id="VbyRztVG5FkuEBrkz8MD-70" value="Componentes:&lt;div&gt;&lt;ul&gt;&lt;li&gt;&lt;span style=&quot;background-color: initial;&quot;&gt;NAVBAR&lt;/span&gt;&lt;br&gt;&lt;/li&gt;&lt;li&gt;FOOTER&lt;/li&gt;&lt;li&gt;LOGIN&lt;/li&gt;&lt;li&gt;REGISTER&lt;/li&gt;&lt;li&gt;PROFILE&lt;/li&gt;&lt;li&gt;CHATBOT&lt;/li&gt;&lt;li&gt;DASHBOARD&lt;/li&gt;&lt;/ul&gt;&lt;/div&gt;" style="whiteSpace=wrap;html=1;shadow=0;strokeWidth=1;spacing=6;spacingTop=-4;" vertex="1" parent="WIyWlLk6GJQsqaUBKTNV-1">
          <mxGeometry x="70" y="1430" width="150" height="160" as="geometry" />
        </mxCell>
        <mxCell id="VbyRztVG5FkuEBrkz8MD-75" value="View:&lt;div&gt;&lt;ul&gt;&lt;li&gt;HOME&lt;/li&gt;&lt;li&gt;LANDING&lt;/li&gt;&lt;/ul&gt;&lt;/div&gt;" style="whiteSpace=wrap;html=1;shadow=0;strokeWidth=1;spacing=6;spacingTop=-4;" vertex="1" parent="WIyWlLk6GJQsqaUBKTNV-1">
          <mxGeometry x="330" y="1430" width="140" height="160" as="geometry" />
        </mxCell>
        <mxCell id="VbyRztVG5FkuEBrkz8MD-78" value="Redux:&lt;div&gt;&lt;ul&gt;&lt;li&gt;ACTION-TYPE&lt;/li&gt;&lt;li&gt;ACTION&lt;/li&gt;&lt;li&gt;REDUCER&lt;/li&gt;&lt;li&gt;STORE&lt;/li&gt;&lt;/ul&gt;&lt;/div&gt;" style="whiteSpace=wrap;html=1;shadow=0;strokeWidth=1;spacing=6;spacingTop=-4;" vertex="1" parent="WIyWlLk6GJQsqaUBKTNV-1">
          <mxGeometry x="600" y="1430" width="160" height="160" as="geometry" />
        </mxCell>
      </root>
    </mxGraphModel>
  </diagram>
</mxfile>
